<?xml version="1.0" encoding="UTF-8"?>
<svg width="128px" height="128px" viewBox="0 0 128 128" version="1.1" xmlns="http://www.w3.org/2000/svg" xmlns:xlink="http://www.w3.org/1999/xlink">
    <title>newlogo</title>
    <defs>
        <radialGradient cx="81.7860439%" cy="91.0691729%" fx="81.7860439%" fy="91.0691729%" r="118.937501%" id="radialGradient-1">
            <stop stop-color="#50FF5E" stop-opacity="0.5" offset="0%"></stop>
            <stop stop-color="#50FF5E" stop-opacity="0" offset="100%"></stop>
        </radialGradient>
        <radialGradient cx="28.3617302%" cy="18.7721938%" fx="28.3617302%" fy="18.7721938%" r="79.6680794%" id="radialGradient-2">
            <stop stop-color="#CFF3FF" stop-opacity="0.5" offset="0%"></stop>
            <stop stop-color="#21A1AF" stop-opacity="0.5" offset="100%"></stop>
            <stop stop-color="#21A1AF" stop-opacity="0.5" offset="100%"></stop>
        </radialGradient>
        <path d="M59.8282326,-1.43802299e-15 L68.1717674,1.43802299e-15 C83.1519155,-1.31378557e-15 92.9239142,2.41346589 101.397988,6.9454503 C109.872062,11.4774347 116.522565,18.1279376 121.05455,26.6020117 C125.586534,35.0760858 128,44.8480845 128,59.8282326 L128,68.1717674 C128,83.1519155 125.586534,92.9239142 121.05455,101.397988 C116.522565,109.872062 109.872062,116.522565 101.397988,121.05455 C92.9239142,125.586534 83.1519155,128 68.1717674,128 L59.8282326,128 C44.8480845,128 35.0760858,125.586534 26.6020117,121.05455 C18.1279376,116.522565 11.4774347,109.872062 6.9454503,101.397988 C2.41346589,92.9239142 8.75857044e-16,83.1519155 -9.58681995e-16,68.1717674 L9.58681995e-16,59.8282326 C-8.75857044e-16,44.8480845 2.41346589,35.0760858 6.9454503,26.6020117 C11.4774347,18.1279376 18.1279376,11.4774347 26.6020117,6.9454503 C35.0760858,2.41346589 44.8480845,1.31378557e-15 59.8282326,-1.43802299e-15 Z" id="path-3"></path>
    </defs>
    <g id="server-logo" stroke="none" stroke-width="1" fill="none" fill-rule="evenodd">
        <g id="newlogo">
            <g id="Rectangle">
                <use fill="#FFFFFF" xlink:href="#path-3"></use>
                <use fill="url(#radialGradient-1)" xlink:href="#path-3"></use>
                <use fill="url(#radialGradient-2)" xlink:href="#path-3"></use>
            </g>
            <g id="akar-icons:planet" transform="translate(40.000000, 41.000000)">
                <rect id="ViewBox" x="0" y="0" width="47" height="47"></rect>
                <g id="Group" stroke-linecap="round" stroke-linejoin="round" transform="translate(4.000000, 4.000000)" stroke="#FFFFFF" stroke-width="3">
                    <ellipse id="Oval" cx="19.5018184" cy="19.5015623" rx="15.6003598" ry="15.6007754"></ellipse>
                    <path d="M12.4797064,5.55641912 C6.57692029,1.13554938 1.89681234,-0.995906558 0.449878968,0.449115266 C-1.83947384,2.73852906 4.83358008,13.1247453 15.3540727,23.6455182 C25.8765154,34.1662912 36.262455,40.8395228 38.5498577,38.550109 C39.3903271,37.7115674 39.0237187,35.7790213 37.7015882,33.1502907" id="Path"></path>
                </g>
            </g>
        </g>
    </g>
</svg>